<svg width="11" height="14" viewBox="0 0 11 14" fill="none" xmlns="http://www.w3.org/2000/svg">
<path d="M1 13.3333C0.733333 13.3333 0.5 13.2333 0.3 13.0333C0.1 12.8333 0 12.6 0 12.3333V3.66667C0 3.4 0.1 3.16667 0.3 2.96667C0.5 2.76667 0.733333 2.66667 1 2.66667H2.83333V2.5C2.83333 1.8 3.075 1.20833 3.55833 0.725C4.04167 0.241667 4.63333 0 5.33333 0C6.03333 0 6.625 0.241667 7.10833 0.725C7.59167 1.20833 7.83333 1.8 7.83333 2.5V2.66667H9.66667C9.93333 2.66667 10.1667 2.76667 10.3667 2.96667C10.5667 3.16667 10.6667 3.4 10.6667 3.66667V12.3333C10.6667 12.6 10.5667 12.8333 10.3667 13.0333C10.1667 13.2333 9.93333 13.3333 9.66667 13.3333H1ZM3.83333 2.66667H6.83333V2.5C6.83333 2.07778 6.68889 1.72222 6.4 1.43333C6.11111 1.14444 5.75556 1 5.33333 1C4.91111 1 4.55556 1.14444 4.26667 1.43333C3.97778 1.72222 3.83333 2.07778 3.83333 2.5V2.66667ZM7.33333 5.66667C7.47778 5.66667 7.59722 5.61944 7.69167 5.525C7.78611 5.43056 7.83333 5.31111 7.83333 5.16667V3.66667H6.83333V5.16667C6.83333 5.31111 6.88056 5.43056 6.975 5.525C7.06944 5.61944 7.18889 5.66667 7.33333 5.66667ZM3.33333 5.66667C3.47778 5.66667 3.59722 5.61944 3.69167 5.525C3.78611 5.43056 3.83333 5.31111 3.83333 5.16667V3.66667H2.83333V5.16667C2.83333 5.31111 2.88056 5.43056 2.975 5.525C3.06944 5.61944 3.18889 5.66667 3.33333 5.66667Z" fill="black"/>
</svg>
