<svg width="16" height="20" viewBox="0 0 16 20" fill="none" xmlns="http://www.w3.org/2000/svg">
<path d="M8.5 10C8.94688 10 9.32943 9.84333 9.64766 9.53C9.96589 9.21667 10.125 8.84 10.125 8.4C10.125 7.96 9.96589 7.58333 9.64766 7.27C9.32943 6.95667 8.94688 6.8 8.5 6.8C8.05312 6.8 7.67057 6.95667 7.35234 7.27C7.03411 7.58333 6.875 7.96 6.875 8.4C6.875 8.84 7.03411 9.21667 7.35234 9.53C7.67057 9.84333 8.05312 10 8.5 10ZM8.5 18C6.31979 16.1733 4.69141 14.4767 3.61484 12.91C2.53828 11.3433 2 9.89333 2 8.56C2 6.56 2.65339 4.96667 3.96016 3.78C5.26693 2.59333 6.78021 2 8.5 2C10.2198 2 11.7331 2.59333 13.0398 3.78C14.3466 4.96667 15 6.56 15 8.56C15 9.89333 14.4617 11.3433 13.3852 12.91C12.3086 14.4767 10.6802 16.1733 8.5 18Z" fill="#95D769"/>
</svg>
