<svg width="14" height="14" viewBox="0 0 14 14" fill="none" xmlns="http://www.w3.org/2000/svg">
<path d="M6.9 8.75225L2.226 13.426C1.97683 13.6753 1.66817 13.8 1.3 13.8C0.931833 13.8 0.623167 13.6753 0.374 13.426C0.124667 13.1768 0 12.8682 0 12.5C0 12.1318 0.124667 11.8232 0.374 11.574L5.04775 6.9L0.374 2.226C0.124667 1.97683 0 1.66817 0 1.3C0 0.931833 0.124667 0.623167 0.374 0.374001C0.623167 0.124667 0.931833 0 1.3 0C1.66817 0 1.97683 0.124667 2.226 0.374001L6.9 5.04775L11.574 0.374001C11.8232 0.124667 12.1318 0 12.5 0C12.8682 0 13.1768 0.124667 13.426 0.374001C13.6753 0.623167 13.8 0.931833 13.8 1.3C13.8 1.66817 13.6753 1.97683 13.426 2.226L8.75225 6.9L13.426 11.574C13.6753 11.8232 13.8 12.1318 13.8 12.5C13.8 12.8682 13.6753 13.1768 13.426 13.426C13.1768 13.6753 12.8682 13.8 12.5 13.8C12.1318 13.8 11.8232 13.6753 11.574 13.426L6.9 8.75225Z" fill="black"/>
</svg>
