<svg width="25" height="25" viewBox="0 0 25 25" fill="none" xmlns="http://www.w3.org/2000/svg">
<g filter="url(#filter0_d_494_43)">
<path d="M12.5 17.4356L8.74468 20.285C8.5586 20.4363 8.35561 20.5077 8.1357 20.4993C7.9158 20.4909 7.72127 20.4279 7.55211 20.3102C7.38295 20.1925 7.25185 20.0328 7.15881 19.8311C7.06578 19.6294 7.06155 19.4109 7.14613 19.1755L8.59243 14.5106L4.91323 11.9134C4.71024 11.7789 4.58337 11.6024 4.53262 11.3839C4.48188 11.1653 4.49033 10.9636 4.558 10.7787C4.62566 10.5938 4.74407 10.4299 4.91323 10.287C5.08239 10.1441 5.28538 10.0727 5.5222 10.0727H10.0641L11.5358 5.23125C11.6204 4.99591 11.7515 4.8152 11.9291 4.68912C12.1067 4.56304 12.297 4.5 12.5 4.5C12.703 4.5 12.8933 4.56304 13.0709 4.68912C13.2485 4.8152 13.3796 4.99591 13.4642 5.23125L14.9359 10.0727H19.4778C19.7146 10.0727 19.9176 10.1441 20.0868 10.287C20.2559 10.4299 20.3743 10.5938 20.442 10.7787C20.5097 10.9636 20.5181 11.1653 20.4674 11.3839C20.4166 11.6024 20.2898 11.7789 20.0868 11.9134L16.4076 14.5106L17.8539 19.1755C17.9385 19.4109 17.9342 19.6294 17.8412 19.8311C17.7482 20.0328 17.6171 20.1925 17.4479 20.3102C17.2787 20.4279 17.0842 20.4909 16.8643 20.4993C16.6444 20.5077 16.4414 20.4363 16.2553 20.285L12.5 17.4356Z" fill="#FFEB56"/>
<path d="M12.5 17.4356L8.74468 20.285C8.5586 20.4363 8.35561 20.5077 8.1357 20.4993C7.9158 20.4909 7.72127 20.4279 7.55211 20.3102C7.38295 20.1925 7.25185 20.0328 7.15881 19.8311C7.06578 19.6294 7.06155 19.4109 7.14613 19.1755L8.59243 14.5106L4.91323 11.9134C4.71024 11.7789 4.58337 11.6024 4.53262 11.3839C4.48188 11.1653 4.49033 10.9636 4.558 10.7787C4.62566 10.5938 4.74407 10.4299 4.91323 10.287C5.08239 10.1441 5.28538 10.0727 5.5222 10.0727H10.0641L11.5358 5.23125C11.6204 4.99591 11.7515 4.8152 11.9291 4.68912C12.1067 4.56304 12.297 4.5 12.5 4.5C12.703 4.5 12.8933 4.56304 13.0709 4.68912C13.2485 4.8152 13.3796 4.99591 13.4642 5.23125L14.9359 10.0727H19.4778C19.7146 10.0727 19.9176 10.1441 20.0868 10.287C20.2559 10.4299 20.3743 10.5938 20.442 10.7787C20.5097 10.9636 20.5181 11.1653 20.4674 11.3839C20.4166 11.6024 20.2898 11.7789 20.0868 11.9134L16.4076 14.5106L17.8539 19.1755C17.9385 19.4109 17.9342 19.6294 17.8412 19.8311C17.7482 20.0328 17.6171 20.1925 17.4479 20.3102C17.2787 20.4279 17.0842 20.4909 16.8643 20.4993C16.6444 20.5077 16.4414 20.4363 16.2553 20.285L12.5 17.4356Z" stroke="#FFE32B"/>
</g>
<defs>
<filter id="filter0_d_494_43" x="0" y="0" width="25" height="25" filterUnits="userSpaceOnUse" color-interpolation-filters="sRGB">
<feFlood flood-opacity="0" result="BackgroundImageFix"/>
<feColorMatrix in="SourceAlpha" type="matrix" values="0 0 0 0 0 0 0 0 0 0 0 0 0 0 0 0 0 0 127 0" result="hardAlpha"/>
<feOffset/>
<feGaussianBlur stdDeviation="2"/>
<feComposite in2="hardAlpha" operator="out"/>
<feColorMatrix type="matrix" values="0 0 0 0 0.996078 0 0 0 0 0.898039 0 0 0 0 0 0 0 0 0.3 0"/>
<feBlend mode="normal" in2="BackgroundImageFix" result="effect1_dropShadow_494_43"/>
<feBlend mode="normal" in="SourceGraphic" in2="effect1_dropShadow_494_43" result="shape"/>
</filter>
</defs>
</svg>
