<svg width="9" height="5" viewBox="0 0 9 5" fill="none" xmlns="http://www.w3.org/2000/svg">
<path d="M4.40279 3.57433L7.81285 0.164267C7.92845 0.0486716 8.06331 -0.00591499 8.21743 0.000506971C8.37156 0.00692894 8.50642 0.0679375 8.62202 0.183533C8.73761 0.299128 8.79541 0.4372 8.79541 0.597749C8.79541 0.758298 8.73761 0.89637 8.62202 1.01197L4.80737 4.82661C4.74316 4.89083 4.67894 4.93578 4.61472 4.96147C4.5505 4.98716 4.47986 5 4.40279 5C4.32573 5 4.25509 4.98716 4.19087 4.96147C4.12665 4.93578 4.06243 4.89083 3.99821 4.82661L0.1643 0.992699C0.0487041 0.877104 -0.00588226 0.742243 0.00053978 0.588116C0.00696182 0.433989 0.0679703 0.299128 0.183565 0.183532C0.299161 0.0679372 0.437233 0.0101396 0.597782 0.0101396C0.75833 0.0101396 0.896403 0.0679372 1.012 0.183532L4.40279 3.57433Z" fill="black" fill-opacity="0.6"/>
</svg>
