<svg width="36" height="36" viewBox="0 0 36 36" fill="none" xmlns="http://www.w3.org/2000/svg">
<path d="M12.9 25.6C9.29467 25.6 6.24333 24.35 3.746 21.85C1.24867 19.35 0 16.3333 0 12.8C0 9.26667 1.25 6.25 3.75 3.75C6.25 1.25 9.275 0 12.825 0C16.375 0 19.3917 1.25 21.875 3.75C24.3583 6.25 25.6 9.26917 25.6 12.8075C25.6 14.2358 25.3667 15.6167 24.9 16.95C24.4333 18.2833 23.7333 19.5333 22.8 20.7L34.9 32.7C35.2 32.9853 35.35 33.3483 35.35 33.789C35.35 34.2297 35.2 34.6 34.9 34.9C34.6 35.2 34.2297 35.35 33.789 35.35C33.3483 35.35 32.9853 35.2 32.7 34.9L20.65 22.85C19.65 23.7167 18.484 24.3917 17.152 24.875C15.82 25.3583 14.4027 25.6 12.9 25.6ZM12.85 22.6C15.5583 22.6 17.8605 21.6417 19.7565 19.725C21.6522 17.8083 22.6 15.5 22.6 12.8C22.6 10.1 21.6522 7.79167 19.7565 5.875C17.8605 3.95833 15.5583 3 12.85 3C10.114 3 7.78833 3.95833 5.873 5.875C3.95767 7.79167 3 10.1 3 12.8C3 15.5 3.95767 17.8083 5.873 19.725C7.78833 21.6417 10.114 22.6 12.85 22.6Z" fill="black"/>
</svg>
