<svg width="20" height="19" viewBox="0 0 20 19" fill="none" xmlns="http://www.w3.org/2000/svg">
<path d="M2 19C1.45 19 0.979167 18.8042 0.5875 18.4125C0.195833 18.0208 0 17.55 0 17V6C0 5.45 0.195833 4.97917 0.5875 4.5875C0.979167 4.19583 1.45 4 2 4H6V2C6 1.45 6.19583 0.979167 6.5875 0.5875C6.97917 0.195833 7.45 0 8 0H12C12.55 0 13.0208 0.195833 13.4125 0.5875C13.8042 0.979167 14 1.45 14 2V4H18C18.55 4 19.0208 4.19583 19.4125 4.5875C19.8042 4.97917 20 5.45 20 6V17C20 17.55 19.8042 18.0208 19.4125 18.4125C19.0208 18.8042 18.55 19 18 19H2ZM2 17H6V14C5.56667 13.9 5.20833 13.6708 4.925 13.3125C4.64167 12.9542 4.5 12.5417 4.5 12.075V8H5.5V11.775H6.25V8H7.25V11.775H8V8H9V12.075C9 12.5417 8.85833 12.9542 8.575 13.3125C8.29167 13.6708 7.93333 13.9 7.5 14V17H12.5V14.8C12.0667 14.55 11.7083 14.1292 11.425 13.5375C11.1417 12.9458 11 12.2667 11 11.5C11 10.5333 11.2167 9.70833 11.65 9.025C12.0833 8.34167 12.6167 8 13.25 8C13.8667 8 14.3958 8.34167 14.8375 9.025C15.2792 9.70833 15.5 10.5333 15.5 11.5C15.5 12.2833 15.3583 12.9708 15.075 13.5625C14.7917 14.1542 14.4333 14.5667 14 14.8V17H18V6H2V17ZM8 4H12V2H8V4Z" fill="black"/>
</svg>
