<svg width="12" height="14" viewBox="0 0 12 14" fill="none" xmlns="http://www.w3.org/2000/svg">
<path d="M5.6 7C5.985 7 6.31458 6.86292 6.58875 6.58875C6.86292 6.31458 7 5.985 7 5.6C7 5.215 6.86292 4.88542 6.58875 4.61125C6.31458 4.33708 5.985 4.2 5.6 4.2C5.215 4.2 4.88542 4.33708 4.61125 4.61125C4.33708 4.88542 4.2 5.215 4.2 5.6C4.2 5.985 4.33708 6.31458 4.61125 6.58875C4.88542 6.86292 5.215 7 5.6 7ZM5.6 14C3.72167 12.4017 2.31875 10.9171 1.39125 9.54625C0.46375 8.17542 0 6.90667 0 5.74C0 3.99 0.562917 2.59583 1.68875 1.5575C2.81458 0.519167 4.11833 0 5.6 0C7.08167 0 8.38542 0.519167 9.51125 1.5575C10.6371 2.59583 11.2 3.99 11.2 5.74C11.2 6.90667 10.7363 8.17542 9.80875 9.54625C8.88125 10.9171 7.47833 12.4017 5.6 14Z" fill="black" fill-opacity="0.2"/>
</svg>
