<svg width="19" height="19" viewBox="0 0 19 19" fill="none" xmlns="http://www.w3.org/2000/svg">
<path d="M9.43587 15.3893L5.36187 17.8457C5.06487 18.0241 4.76179 18.1026 4.45262 18.0813C4.14362 18.0597 3.87495 17.9599 3.64662 17.7818C3.40895 17.6129 3.23545 17.3888 3.12612 17.1095C3.01662 16.8302 2.9952 16.5252 3.06187 16.1947L4.15437 11.5457L0.530371 8.397C0.268871 8.18533 0.106038 7.9315 0.0418715 7.6355C-0.0222952 7.3395 -0.0127118 7.05125 0.0706215 6.77075C0.163455 6.49975 0.326288 6.26683 0.559122 6.072C0.792122 5.877 1.07854 5.76283 1.41837 5.7295L6.17062 5.31525L8.01312 0.927249C8.14862 0.606249 8.34537 0.3715 8.60337 0.223C8.86121 0.0743329 9.1387 0 9.43587 0C9.73304 0 10.0105 0.0743329 10.2684 0.223C10.5264 0.3715 10.7231 0.606249 10.8586 0.927249L12.7011 5.31525L17.4534 5.7295C17.7932 5.76283 18.0796 5.877 18.3126 6.072C18.5455 6.26683 18.7083 6.49975 18.8011 6.77075C18.8845 7.05125 18.894 7.3395 18.8299 7.6355C18.7657 7.9315 18.6029 8.18533 18.3414 8.397L14.7174 11.5457L15.8099 16.1947C15.8765 16.5252 15.8551 16.8302 15.7456 17.1095C15.6363 17.3888 15.4628 17.6129 15.2251 17.7818C14.9968 17.9599 14.7281 18.0597 14.4191 18.0813C14.11 18.1026 13.8069 18.0241 13.5099 17.8457L9.43587 15.3893Z" fill="black"/>
</svg>
