<svg width="12" height="12" viewBox="0 0 12 12" fill="none" xmlns="http://www.w3.org/2000/svg">
<path d="M11.0485 12C9.69327 12 8.35383 11.7051 7.03023 11.1154C5.70662 10.5256 4.49908 9.68836 3.4076 8.60382C2.31623 7.51316 1.47545 6.30505 0.88527 4.97948C0.29509 3.65392 0 2.31396 0 0.959601C0 0.686303 0.0901474 0.458045 0.270442 0.274827C0.450843 0.091609 0.677794 0 0.951298 0H3.50751C3.79252 0 4.02887 0.0754707 4.21655 0.226412C4.40434 0.377248 4.52669 0.58383 4.58358 0.846158L4.98624 2.87342C5.03121 3.13164 5.02741 3.35156 4.97484 3.5332C4.92237 3.71473 4.81808 3.87453 4.66196 4.0126L3.0724 5.49164C3.25966 5.81631 3.48054 6.13675 3.73505 6.45298C3.98955 6.76921 4.27905 7.08417 4.60353 7.39787C4.90089 7.69501 5.1992 7.96245 5.49846 8.2002C5.79772 8.43806 6.10611 8.64917 6.42363 8.83355L7.97472 7.31037C8.13538 7.15585 8.32206 7.04889 8.53476 6.9895C8.74746 6.93012 8.97246 6.92289 9.20976 6.96783L11.1532 7.3841C11.4263 7.46205 11.6357 7.58768 11.7813 7.76098C11.9271 7.93439 12 8.15226 12 8.41459V11.0404C12 11.3137 11.9083 11.542 11.725 11.7252C11.5416 11.9084 11.3161 12 11.0485 12Z" fill="black" fill-opacity="0.2"/>
</svg>
