<svg width="13" height="16" viewBox="0 0 13 16" fill="none" xmlns="http://www.w3.org/2000/svg">
<path d="M6.5 8C6.94688 8 7.32943 7.84333 7.64766 7.53C7.96589 7.21667 8.125 6.84 8.125 6.4C8.125 5.96 7.96589 5.58333 7.64766 5.27C7.32943 4.95667 6.94688 4.8 6.5 4.8C6.05312 4.8 5.67057 4.95667 5.35234 5.27C5.03411 5.58333 4.875 5.96 4.875 6.4C4.875 6.84 5.03411 7.21667 5.35234 7.53C5.67057 7.84333 6.05312 8 6.5 8ZM6.5 16C4.31979 14.1733 2.69141 12.4767 1.61484 10.91C0.538281 9.34333 0 7.89333 0 6.56C0 4.56 0.653385 2.96667 1.96016 1.78C3.26693 0.593333 4.78021 0 6.5 0C8.21979 0 9.73307 0.593333 11.0398 1.78C12.3466 2.96667 13 4.56 13 6.56C13 7.89333 12.4617 9.34333 11.3852 10.91C10.3086 12.4767 8.68021 14.1733 6.5 16Z" fill="black"/>
</svg>
