<svg width="17" height="17" viewBox="0 0 17 17" fill="none" xmlns="http://www.w3.org/2000/svg">
<path d="M8.5 13.4356L4.74468 16.285C4.5586 16.4363 4.35561 16.5077 4.1357 16.4993C3.9158 16.4909 3.72127 16.4279 3.55211 16.3102C3.38295 16.1925 3.25185 16.0328 3.15881 15.8311C3.06578 15.6294 3.06155 15.4109 3.14613 15.1755L4.59243 10.5106L0.913231 7.9134C0.71024 7.77892 0.583371 7.60241 0.532623 7.38388C0.481876 7.16534 0.490334 6.96361 0.557997 6.7787C0.625661 6.59378 0.744072 6.42988 0.913231 6.28699C1.08239 6.14411 1.28538 6.07266 1.5222 6.07266H6.06411L7.5358 1.23125C7.62037 0.995908 7.75147 0.815196 7.92909 0.689117C8.10671 0.563039 8.29701 0.5 8.5 0.5C8.70299 0.5 8.89329 0.563039 9.07091 0.689117C9.24853 0.815196 9.37963 0.995908 9.4642 1.23125L10.9359 6.07266H15.4778C15.7146 6.07266 15.9176 6.14411 16.0868 6.28699C16.2559 6.42988 16.3743 6.59378 16.442 6.7787C16.5097 6.96361 16.5181 7.16534 16.4674 7.38388C16.4166 7.60241 16.2898 7.77892 16.0868 7.9134L12.4076 10.5106L13.8539 15.1755C13.9385 15.4109 13.9342 15.6294 13.8412 15.8311C13.7482 16.0328 13.6171 16.1925 13.4479 16.3102C13.2787 16.4279 13.0842 16.4909 12.8643 16.4993C12.6444 16.5077 12.4414 16.4363 12.2553 16.285L8.5 13.4356Z" fill="white" stroke="black" stroke-opacity="0.1"/>
</svg>
