<svg width="12" height="11" viewBox="0 0 12 11" fill="none" xmlns="http://www.w3.org/2000/svg">
<path d="M6 11C5.29577 11 4.63615 10.867 4.02113 10.6011C3.4061 10.3352 2.87089 9.97604 2.41549 9.52354C1.96009 9.07103 1.59859 8.53923 1.33099 7.92812C1.06338 7.31701 0.929577 6.66158 0.929577 5.96183C0.929577 5.26209 1.06338 4.60666 1.33099 3.99555C1.59859 3.38444 1.96009 2.85263 2.41549 2.40013C2.87089 1.94763 3.4061 1.58842 4.02113 1.32252C4.63615 1.05662 5.29577 0.923664 6 0.923664C6.70423 0.923664 7.36385 1.05662 7.97887 1.32252C8.5939 1.58842 9.12911 1.94763 9.58451 2.40013C10.0399 2.85263 10.4014 3.38444 10.669 3.99555C10.9366 4.60666 11.0704 5.26209 11.0704 5.96183C11.0704 6.66158 10.9366 7.31701 10.669 7.92812C10.4014 8.53923 10.0399 9.07103 9.58451 9.52354C9.12911 9.97604 8.5939 10.3352 7.97887 10.6011C7.36385 10.867 6.70423 11 6 11ZM7.57746 8.31298L8.3662 7.52926L6.56338 5.73791V3.16285H5.43662V6.18575L7.57746 8.31298ZM2.39437 0L3.1831 0.783715L0.788732 3.16285L0 2.37913L2.39437 0ZM9.60563 0L12 2.37913L11.2113 3.16285L8.8169 0.783715L9.60563 0ZM6 9.88041C7.09859 9.88041 8.03052 9.50021 8.79577 8.73982C9.56103 7.97943 9.94366 7.05344 9.94366 5.96183C9.94366 4.87023 9.56103 3.94423 8.79577 3.18384C8.03052 2.42345 7.09859 2.04326 6 2.04326C4.90141 2.04326 3.96948 2.42345 3.20423 3.18384C2.43897 3.94423 2.05634 4.87023 2.05634 5.96183C2.05634 7.05344 2.43897 7.97943 3.20423 8.73982C3.96948 9.50021 4.90141 9.88041 6 9.88041Z" fill="#79CD42"/>
</svg>
