<svg width="35" height="44" viewBox="0 0 35 44" fill="none" xmlns="http://www.w3.org/2000/svg">
<g filter="url(#filter0_i_619_69)">
<path d="M17.2795 21.5524C18.4648 21.5411 19.4755 21.1093 20.3115 20.2572C21.1476 19.405 21.5599 18.3862 21.5486 17.2009C21.5372 16.0155 21.1055 15.0049 20.2533 14.1688C19.4011 13.3328 18.3823 12.9205 17.197 12.9318C16.0117 12.9432 15.001 13.3749 14.165 14.2271C13.3289 15.0793 12.9166 16.098 12.9279 17.2834C12.9393 18.4687 13.371 19.4794 14.2232 20.3154C15.0754 21.1514 16.0942 21.5638 17.2795 21.5524ZM17.4857 43.104C11.6556 38.2384 7.29261 33.709 4.39665 29.5158C1.50068 25.3226 0.0355118 21.4301 0.00114009 17.8381C-0.0504175 12.4503 1.64161 8.14132 5.07723 4.91134C8.51284 1.68136 12.5115 0.0445461 17.0733 0.000894054C21.635 -0.042758 25.6643 1.51724 29.1611 4.68088C32.6579 7.84452 34.4321 12.1203 34.4836 17.5082C34.518 21.1001 33.1276 25.02 30.3124 29.2678C27.4972 33.5157 23.2216 38.1277 17.4857 43.104Z" fill="#7DE56C"/>
</g>
<path d="M17.0782 0.50087C21.5097 0.458503 25.4184 1.96934 28.8254 5.05176C32.2034 8.10792 33.9335 12.2426 33.984 17.5127C34.0171 20.971 32.6776 24.7938 29.8954 28.9918C27.1667 33.109 23.0333 37.5926 17.4796 42.4443C11.8338 37.6996 7.61463 33.2962 4.80765 29.2319C1.94565 25.0879 0.534208 21.2914 0.501115 17.8331C0.450734 12.5632 2.10056 8.39596 5.41927 5.27574C8.76676 2.1286 12.6467 0.543276 17.0782 0.50087ZM17.1924 12.432C15.8734 12.4446 14.7358 12.9304 13.8076 13.8765C12.8795 14.8226 12.4155 15.9693 12.4281 17.2883C12.4407 18.6071 12.9268 19.7441 13.8726 20.6721C14.8187 21.6003 15.9655 22.0652 17.2844 22.0526C18.6034 22.04 19.7401 21.5531 20.6682 20.6071C21.5963 19.661 22.0613 18.5152 22.0487 17.1963C22.0361 15.8773 21.5493 14.7397 20.6032 13.8115C19.6572 12.8836 18.5112 12.4194 17.1924 12.432Z" stroke="#65CC21"/>
<defs>
<filter id="filter0_i_619_69" x="0" y="0" width="34.4843" height="45.104" filterUnits="userSpaceOnUse" color-interpolation-filters="sRGB">
<feFlood flood-opacity="0" result="BackgroundImageFix"/>
<feBlend mode="normal" in="SourceGraphic" in2="BackgroundImageFix" result="shape"/>
<feColorMatrix in="SourceAlpha" type="matrix" values="0 0 0 0 0 0 0 0 0 0 0 0 0 0 0 0 0 0 127 0" result="hardAlpha"/>
<feOffset dy="2"/>
<feGaussianBlur stdDeviation="2"/>
<feComposite in2="hardAlpha" operator="arithmetic" k2="-1" k3="1"/>
<feColorMatrix type="matrix" values="0 0 0 0 1 0 0 0 0 1 0 0 0 0 1 0 0 0 0.25 0"/>
<feBlend mode="normal" in2="shape" result="effect1_innerShadow_619_69"/>
</filter>
</defs>
</svg>
