<svg width="13" height="23" viewBox="0 0 13 23" fill="none" xmlns="http://www.w3.org/2000/svg">
<path d="M9.27632 11.4L0.426316 2.55C0.126316 2.25 -0.0153509 1.9 0.00131579 1.5C0.0179825 1.1 0.176316 0.75 0.476316 0.45C0.776316 0.15 1.13465 0 1.55132 0C1.96798 0 2.32632 0.15 2.62632 0.45L12.5263 10.35C12.693 10.5167 12.8096 10.6833 12.8763 10.85C12.943 11.0167 12.9763 11.2 12.9763 11.4C12.9763 11.6 12.943 11.7833 12.8763 11.95C12.8096 12.1167 12.693 12.2833 12.5263 12.45L2.57632 22.4C2.27632 22.7 1.92632 22.8417 1.52632 22.825C1.12632 22.8083 0.776316 22.65 0.476316 22.35C0.176316 22.05 0.0263158 21.6917 0.0263158 21.275C0.0263158 20.8583 0.176316 20.5 0.476316 20.2L9.27632 11.4Z" fill="black"/>
</svg>
