<svg width="17" height="12" viewBox="0 0 17 12" fill="none" xmlns="http://www.w3.org/2000/svg">
<path d="M5.60558 8.6195L13.8263 0.399001C14.0922 0.133001 14.4055 0 14.7663 0C15.1273 0 15.4407 0.133001 15.7066 0.399001C15.9726 0.664834 16.1056 0.980001 16.1056 1.3445C16.1056 1.709 15.9726 2.02425 15.7066 2.29025L6.54582 11.462C6.27982 11.728 5.96641 11.861 5.60558 11.861C5.24474 11.861 4.93133 11.728 4.66533 11.462L0.393575 7.19025C0.127575 6.92425 -0.00359188 6.609 7.47836e-05 6.2445C0.00374145 5.88 0.138575 5.56483 0.404575 5.299C0.670408 5.033 0.985575 4.9 1.35007 4.9C1.71457 4.9 2.02982 5.033 2.29582 5.299L5.60558 8.6195Z" fill="black"/>
</svg>
