<svg width="14" height="12" viewBox="0 0 14 12" fill="none" xmlns="http://www.w3.org/2000/svg">
<path d="M2.9715 12C2.80531 12 2.66713 11.9568 2.55694 11.8705C2.44676 11.7843 2.39167 11.6775 2.39167 11.55V6.4011C1.65278 6.2537 1.06944 5.9775 0.641667 5.5725C0.213889 5.1675 0 4.695 0 4.155V0.45C0 0.3225 0.0562591 0.2156 0.168778 0.1293C0.281167 0.0430999 0.420518 0 0.586833 0C0.753018 0 0.891204 0.0430999 1.00139 0.1293C1.11157 0.2156 1.16667 0.3225 1.16667 0.45V3.705H2.39167V0.45C2.39167 0.3225 2.44793 0.2156 2.56044 0.1293C2.67283 0.0430999 2.81218 0 2.9785 0C3.14468 0 3.28287 0.0430999 3.39306 0.1293C3.50324 0.2156 3.55833 0.3225 3.55833 0.45V3.705H4.80278V0.45C4.80278 0.3225 4.85904 0.2156 4.97156 0.1293C5.08394 0.0430999 5.2233 0 5.38961 0C5.5558 0 5.69398 0.0430999 5.80417 0.1293C5.91435 0.2156 5.96944 0.3225 5.96944 0.45V4.14795C5.96944 4.70265 5.75556 5.18 5.32778 5.58C4.9 5.98 4.31019 6.2537 3.55833 6.4011V11.55C3.55833 11.6775 3.50207 11.7843 3.38956 11.8705C3.27717 11.9568 3.13781 12 2.9715 12ZM11.0021 12C10.8359 12 10.6977 11.9568 10.5875 11.8705C10.4773 11.7843 10.4222 11.6775 10.4222 11.55V6.16425C9.68333 5.97475 9.09676 5.6075 8.6625 5.0625C8.22824 4.5175 8.01111 3.87 8.01111 3.12C8.01111 2.2509 8.30433 1.5136 8.89078 0.9081C9.47709 0.3027 10.182 0 11.0056 0C11.8291 0 12.534 0.30375 13.1203 0.91125C13.7068 1.51875 14 2.255 14 3.12C14 3.87 13.7829 4.5175 13.3486 5.0625C12.9144 5.6075 12.3278 5.98 11.5889 6.18V11.55C11.5889 11.6775 11.5326 11.7843 11.4201 11.8705C11.3077 11.9568 11.1684 12 11.0021 12Z" fill="#FF5555" fill-opacity="0.8"/>
</svg>
