<svg width="35" height="44" viewBox="0 0 35 44" fill="none" xmlns="http://www.w3.org/2000/svg">
<g filter="url(#filter0_i_619_64)">
<path d="M17.4475 21.7165C18.6328 21.7052 19.6435 21.2734 20.4795 20.4212C21.3155 19.5691 21.7279 18.5503 21.7165 17.365C21.7052 16.1796 21.2734 15.169 20.4212 14.3329C19.5691 13.4969 18.5503 13.0846 17.365 13.0959C16.1796 13.1073 15.169 13.539 14.3329 14.3912C13.4969 15.2434 13.0846 16.2621 13.0959 17.4475C13.1073 18.6328 13.539 19.6435 14.3912 20.4795C15.2434 21.3155 16.2621 21.7279 17.4475 21.7165ZM17.6537 43.2681C11.8236 38.4025 7.46058 33.8731 4.56462 29.6799C1.66865 25.4867 0.203481 21.5942 0.169109 18.0022C0.117551 12.6144 1.80958 8.30542 5.2452 5.07544C8.68081 1.84546 12.6795 0.208639 17.2412 0.164987C21.803 0.121335 25.8322 1.68133 29.329 4.84497C32.8258 8.00862 34.6 12.2844 34.6516 17.6723C34.6859 21.2642 33.2955 25.1841 30.4803 29.4319C27.6652 33.6797 23.3896 38.2918 17.6537 43.2681Z" fill="#FFD634"/>
</g>
<path d="M17.2462 0.664963C21.6776 0.622596 25.5863 2.13343 28.9934 5.21585C32.3714 8.27202 34.1014 12.4067 34.1519 17.6768C34.185 21.1351 32.8455 24.9579 30.0633 29.1559C27.3347 33.2731 23.2013 37.7567 17.6475 42.6084C12.0017 37.8637 7.7826 33.4603 4.97562 29.396C2.11362 25.252 0.702177 21.4555 0.669084 17.9972C0.618702 12.7273 2.26853 8.56005 5.58724 5.43983C8.93473 2.2927 12.8146 0.707369 17.2462 0.664963ZM17.3604 12.5961C16.0414 12.6087 14.9037 13.0945 13.9756 14.0406C13.0474 14.9867 12.5834 16.1334 12.5961 17.4524C12.6087 18.7712 13.0948 19.9082 14.0406 20.8362C14.9867 21.7644 16.1334 22.2293 17.4524 22.2167C18.7713 22.204 19.9081 21.7172 20.8362 20.7712C21.7643 19.8251 22.2293 18.6793 22.2167 17.3604C22.2041 16.0414 21.7173 14.9037 20.7712 13.9756C19.8252 13.0477 18.6791 12.5835 17.3604 12.5961Z" stroke="#FFCA91"/>
<path d="M17.4948 6.59093C17.848 6.58755 18.1756 6.69734 18.4665 6.90098C18.736 7.08966 18.9342 7.34547 19.0684 7.64818L19.1225 7.78146L19.1305 7.80482L20.822 13.2186L25.8443 13.1705C26.2355 13.1668 26.5947 13.2854 26.8947 13.5355C27.1555 13.753 27.3542 14.0169 27.4706 14.3279C27.5914 14.6505 27.6026 14.991 27.5271 15.3332C27.4406 15.7254 27.2148 16.0394 26.8857 16.2671L26.8866 16.2681L22.8393 19.2005L24.5016 24.4143L24.5006 24.4144C24.6352 24.7937 24.6386 25.1836 24.4734 25.5533C24.332 25.8697 24.1237 26.1345 23.8461 26.3328C23.5633 26.5348 23.2394 26.6415 22.8892 26.6584C22.5001 26.6771 22.1454 26.5498 21.8399 26.309L21.8399 26.31L17.6535 23.1761L13.5278 26.3896L13.5268 26.3886C13.2261 26.6348 12.8745 26.7692 12.4854 26.7579C12.1349 26.7478 11.809 26.6473 11.5224 26.4507C11.241 26.2577 11.0277 25.997 10.8803 25.6834C10.7081 25.317 10.7031 24.9269 10.8303 24.5452L12.3916 19.3005L8.28983 16.4461L8.28982 16.4451C7.95674 16.2237 7.72554 15.9138 7.63156 15.5236C7.54954 15.1829 7.55424 14.8422 7.66881 14.5173C7.77928 14.2043 7.97284 13.9365 8.22951 13.7141C8.52466 13.4583 8.88149 13.3328 9.27275 13.3291L14.295 13.281L15.8826 7.8359L15.8902 7.81239C16.0161 7.44902 16.2253 7.14107 16.5291 6.91952C16.8161 6.71035 17.1415 6.59431 17.4948 6.59093Z" fill="white" stroke="#FFCB00"/>
<defs>
<filter id="filter0_i_619_64" x="0.167969" y="0.164093" width="34.4843" height="45.104" filterUnits="userSpaceOnUse" color-interpolation-filters="sRGB">
<feFlood flood-opacity="0" result="BackgroundImageFix"/>
<feBlend mode="normal" in="SourceGraphic" in2="BackgroundImageFix" result="shape"/>
<feColorMatrix in="SourceAlpha" type="matrix" values="0 0 0 0 0 0 0 0 0 0 0 0 0 0 0 0 0 0 127 0" result="hardAlpha"/>
<feOffset dy="2"/>
<feGaussianBlur stdDeviation="2"/>
<feComposite in2="hardAlpha" operator="arithmetic" k2="-1" k3="1"/>
<feColorMatrix type="matrix" values="0 0 0 0 1 0 0 0 0 1 0 0 0 0 1 0 0 0 0.25 0"/>
<feBlend mode="normal" in2="shape" result="effect1_innerShadow_619_64"/>
</filter>
</defs>
</svg>
