<svg width="18" height="20" viewBox="0 0 18 20" fill="none" xmlns="http://www.w3.org/2000/svg">
<path d="M2 20C1.45 20 0.979167 19.8042 0.5875 19.4125C0.195833 19.0208 0 18.55 0 18V4C0 3.45 0.195833 2.97917 0.5875 2.5875C0.979167 2.19583 1.45 2 2 2H3V0H5V2H13V0H15V2H16C16.55 2 17.0208 2.19583 17.4125 2.5875C17.8042 2.97917 18 3.45 18 4V18C18 18.55 17.8042 19.0208 17.4125 19.4125C17.0208 19.8042 16.55 20 16 20H2ZM6 16H7.5V12C7.93333 11.8833 8.29167 11.6458 8.575 11.2875C8.85833 10.9292 9 10.525 9 10.075V6H8V9.775H7.25V6H6.25V9.775H5.5V6H4.5V10.075C4.5 10.525 4.64167 10.9292 4.925 11.2875C5.20833 11.6458 5.56667 11.8833 6 12V16ZM12 16H13.5V6C12.6667 6 11.9583 6.29167 11.375 6.875C10.7917 7.45833 10.5 8.16667 10.5 9V12H12V16Z" fill="black"/>
</svg>
