<svg width="33" height="18" viewBox="0 0 33 18" fill="none" xmlns="http://www.w3.org/2000/svg">
<path d="M0.132561 15.216L0.996561 16.944C1.33256 17.616 2.22056 17.832 2.82056 17.352L6.56456 14.4L4.40456 10.632C3.94856 9.84 2.82056 9.816 2.34056 10.584L0.156561 14.04C-0.035439 14.4 -0.0594389 14.832 0.132561 15.216Z" fill="black"/>
<path d="M4.04454 6.6L8.34054 14.4H11.6285L10.2125 3.624C10.1165 2.784 9.18054 2.328 8.43654 2.736L4.50054 4.968C3.92454 5.28 3.70854 6.024 4.04454 6.6Z" fill="black"/>
<path d="M32.6766 15.216L31.8126 16.944C31.4766 17.616 30.5886 17.832 29.9886 17.352L26.2446 14.4L28.4046 10.632C28.8606 9.84 29.9886 9.816 30.4686 10.584L32.6526 14.04C32.8446 14.4 32.8686 14.832 32.6766 15.216Z" fill="black"/>
<path d="M28.7647 6.6L24.4687 14.4H21.1807L22.5727 3.624C22.6927 2.784 23.6047 2.304 24.3487 2.736L28.2847 4.968C28.8847 5.28 29.1007 6.024 28.7647 6.6Z" fill="black"/>
<path d="M11.7727 1.344L13.2607 14.4H19.5487L21.0367 1.344C21.1087 0.624 20.5567 0 19.8367 0H12.9727C12.2527 0 11.7007 0.624 11.7727 1.344Z" fill="black"/>
</svg>
