<svg width="36" height="36" viewBox="0 0 36 36" fill="none" xmlns="http://www.w3.org/2000/svg">
<path d="M26 8.16C26 11.7 24.32 14.66 22 15.8V36H18V15.8C15.68 14.66 14 11.7 14 8.16C14.02 3.66 16.7 0 20 0C23.32 0 26 3.66 26 8.16ZM28 0V36H32V20H36V8C36 4.48 33.52 0 28 0ZM10.56 0C9.76 0 9.12 0.64 9.12 1.44V8H7.44V1.44C7.44 0.64 6.8 0 6 0C5.2 0 4.56 0.64 4.56 1.44V8H2.88V1.44C2.88 0.64 2.24 0 1.44 0C0.64 0 0 0.64 0 1.44V12C0 14.2 1.8 16 4 16V36H8V16C10.2 16 12 14.2 12 12V1.44C12 0.64 11.36 0 10.56 0Z" fill="black"/>
</svg>
