<svg width="19" height="19" viewBox="0 0 19 19" fill="none" xmlns="http://www.w3.org/2000/svg">
<path d="M17.4445 18.961C15.3047 18.961 13.1898 18.4951 11.1 17.5632C9.01017 16.6313 7.10358 15.3084 5.38025 13.5947C3.65708 11.8714 2.32958 9.9625 1.39775 7.868C0.465917 5.7735 0 3.65625 0 1.51625C0 1.08442 0.142333 0.72375 0.427 0.43425C0.711833 0.14475 1.07017 0 1.502 0H5.538C5.988 0 6.36117 0.11925 6.6575 0.35775C6.954 0.596083 7.14717 0.9225 7.237 1.337L7.87275 4.54025C7.94375 4.94825 7.93775 5.29575 7.85475 5.58275C7.77192 5.86958 7.60725 6.12208 7.36075 6.34025L4.851 8.67725C5.14667 9.19025 5.49542 9.69658 5.89725 10.1962C6.29908 10.6959 6.75617 11.1936 7.2685 11.6892C7.738 12.1587 8.209 12.5813 8.6815 12.957C9.154 13.3328 9.64092 13.6664 10.1423 13.9577L12.5913 11.551C12.8449 11.3068 13.1397 11.1378 13.4755 11.044C13.8113 10.9502 14.1666 10.9387 14.5413 11.0097L17.6098 11.6675C18.0409 11.7907 18.3715 11.9892 18.6015 12.263C18.8317 12.537 18.9468 12.8812 18.9468 13.2957V17.4447C18.9468 17.8766 18.802 18.2372 18.5125 18.5267C18.223 18.8162 17.867 18.961 17.4445 18.961Z" fill="black"/>
</svg>
